<svg width="56" height="124" viewBox="0 0 346 765" fill="none" xmlns="http://www.w3.org/2000/svg">
<path d="M278.851 709.019L12.0483 22.2125" stroke="url(#paint0_linear_168_4)" stroke-width="3.06785" stroke-linecap="round" stroke-linejoin="round"/>
<path d="M8.73456 14.5396L15.9348 36.0871C15.9348 36.0871 30.8177 27.5717 33.3602 31.7751C77.338 104.485 145.994 283.344 196.468 411.528C241.275 525.317 320.396 756.848 320.396 756.848L333.719 746.746C333.719 746.746 245.641 499.807 195.858 378.579C145.313 255.494 100.771 118.214 32.7146 14.2584C28.3356 7.56961 8.73174 14.5351 8.73174 14.5351L8.73456 14.5396Z" fill="#612700"/>
<path d="M277.876 704.674C277.092 704.99 276.715 705.874 277.03 706.659L292.245 744.478C292.561 745.263 293.445 745.64 294.23 745.324L314.03 737.359C314.814 737.043 315.191 736.159 314.875 735.374L299.661 697.554C299.345 696.77 298.461 696.393 297.676 696.709L294.299 698.067L298.132 707.595C299.795 711.728 298.365 716.163 294.938 717.542C291.511 718.92 287.422 716.705 285.76 712.573L281.926 703.045L277.876 704.674ZM296.892 723.332C300.586 721.846 304.779 723.634 306.265 727.327C307.751 731.02 305.963 735.214 302.27 736.7C298.577 738.186 294.369 736.404 292.883 732.711C291.398 729.017 293.199 724.818 296.892 723.332Z" fill="#BA925E"/>
<defs>
<linearGradient id="paint0_linear_168_4" x1="128.582" y1="329.449" x2="130.182" y2="329.449" gradientUnits="userSpaceOnUse">
<stop stop-color="#666666"/>
<stop offset="0.5" stop-color="white"/>
<stop offset="1" stop-color="#666666"/>
</linearGradient>
</defs>
</svg>
